<svg width="25" height="25" viewBox="0 0 25 25" fill="none" xmlns="http://www.w3.org/2000/svg">
<path d="M6.25 2.08334L3.125 6.25001V20.8333C3.125 21.3859 3.34449 21.9158 3.73519 22.3065C4.12589 22.6972 4.6558 22.9167 5.20833 22.9167H19.7917C20.3442 22.9167 20.8741 22.6972 21.2648 22.3065C21.6555 21.9158 21.875 21.3859 21.875 20.8333V6.25001L18.75 2.08334H6.25Z" stroke="white" stroke-width="2" stroke-linecap="round" stroke-linejoin="round"/>
<path d="M3.125 6.25H21.875" stroke="white" stroke-width="2" stroke-linecap="round" stroke-linejoin="round"/>
<path d="M16.6663 10.4167C16.6663 11.5217 16.2274 12.5815 15.446 13.3629C14.6646 14.1443 13.6047 14.5833 12.4997 14.5833C11.3946 14.5833 10.3348 14.1443 9.5534 13.3629C8.77199 12.5815 8.33301 11.5217 8.33301 10.4167" stroke="white" stroke-width="2" stroke-linecap="round" stroke-linejoin="round"/>
</svg>
