<svg width="32" height="32" viewBox="0 0 32 32" fill="none" xmlns="http://www.w3.org/2000/svg">
<path d="M6.44622 21.8786L5.23225 21.1801L4.00997 20.4734L1.58203 19.0765V13.4556L2.796 12.7572L4.00997 12.0504L6.47948 10.6951L8.90725 12.092L11.3437 13.4972L11.3104 16.2661V19.0765M18.5192 20.5898L16.083 21.9867M16.083 21.9867V27.6075M16.083 21.9867L11.2521 19.1098L8.81585 20.5067L6.38791 21.9119V27.5327L8.81585 28.9296L11.2521 30.3348L16.083 27.6075M16.083 27.6075L18.5192 29.0128L20.9472 30.4097L23.3751 29.0128L25.8114 27.6075V23.2339M6.45457 7.86807V10.6793M30.418 6.82871C29.1874 5.59811 27.2667 5.52327 26.1275 6.66241M25.1711 1.58203C26.4017 2.81263 26.4765 4.73336 25.3374 5.8725M22.4854 10.6785C21.313 14.1208 19.8995 16.9562 23.5082 20.5732C24.6224 21.6874 25.3873 20.9557 25.2626 19.9246L24.2648 11.5931M21.3129 9.51441C17.8788 10.6868 15.0352 12.1003 11.4265 8.48337C10.3123 7.36918 11.044 6.60421 12.0751 6.72893L20.3567 7.7184M15.2846 12.6741L14.952 13.0067C14.6859 13.2727 14.5446 13.6303 14.528 14.0211C14.503 14.5782 14.8439 15.235 14.9271 15.9335L15.0102 16.6569C15.0185 16.74 15.0601 16.8149 15.1183 16.8731C15.1765 16.9313 15.2513 16.9728 15.3345 16.9812L16.0579 17.0643C16.7563 17.1475 17.4215 17.4884 17.9703 17.4634C18.3611 17.4468 18.7186 17.3137 18.9847 17.0394L19.3173 16.7068M14.2535 17.7463L14.9854 17.0144M19.6752 13.5391L18.4609 12.3248M18.129 15.0857L16.9147 13.8714M26.2768 7.15299L24.8384 5.71452C24.2813 5.15743 23.3666 5.15743 22.8012 5.71452L22.452 6.06375C21.8949 6.62084 21.8949 7.53548 22.452 8.10089L23.8905 9.53936C24.4476 10.0965 25.3622 10.0965 25.9276 9.53936L26.2768 9.19013C26.8422 8.63304 26.8422 7.7184 26.2768 7.15299Z" stroke="#8D889F" stroke-width="1.6" stroke-miterlimit="22.9256" stroke-linecap="round" stroke-linejoin="round"/>
</svg>
