<svg width="32" height="30" viewBox="0 0 32 30" fill="none" xmlns="http://www.w3.org/2000/svg">
<path d="M3.5 16.5609V27.25C3.5 27.5815 3.6317 27.8995 3.86612 28.1339C4.10054 28.3683 4.41848 28.5 4.75 28.5H27.25C27.5815 28.5 27.8995 28.3683 28.1339 28.1339C28.3683 27.8995 28.5 27.5815 28.5 27.25V16.5609" stroke="#8D889F" stroke-width="1.8" stroke-linecap="round" stroke-linejoin="round"/>
<path d="M4.4375 1H27.5625C27.834 1.00005 28.0982 1.08852 28.315 1.25203C28.5317 1.41553 28.6894 1.64518 28.7641 1.90625L31 9.75H1L3.24063 1.90625C3.31507 1.64595 3.47202 1.41687 3.68786 1.25344C3.9037 1.09001 4.16677 1.00107 4.4375 1Z" stroke="#8D889F" stroke-width="1.8" stroke-linecap="round" stroke-linejoin="round"/>
<path d="M11 9.75V12.25C11 13.5761 10.4732 14.8479 9.53553 15.7855C8.59785 16.7232 7.32608 17.25 6 17.25C4.67392 17.25 3.40215 16.7232 2.46447 15.7855C1.52678 14.8479 1 13.5761 1 12.25V9.75" stroke="#8D889F" stroke-width="1.8" stroke-linecap="round" stroke-linejoin="round"/>
<path d="M21 9.75V12.25C21 13.5761 20.4732 14.8479 19.5355 15.7855C18.5979 16.7232 17.3261 17.25 16 17.25C14.6739 17.25 13.4021 16.7232 12.4645 15.7855C11.5268 14.8479 11 13.5761 11 12.25V9.75" stroke="#8D889F" stroke-width="1.8" stroke-linecap="round" stroke-linejoin="round"/>
<path d="M31 9.75V12.25C31 13.5761 30.4732 14.8479 29.5355 15.7855C28.5979 16.7232 27.3261 17.25 26 17.25C24.6739 17.25 23.4021 16.7232 22.4645 15.7855C21.5268 14.8479 21 13.5761 21 12.25V9.75" stroke="#8D889F" stroke-width="1.8" stroke-linecap="round" stroke-linejoin="round"/>
</svg>
