<svg width="32" height="32" viewBox="0 0 32 32" fill="none" xmlns="http://www.w3.org/2000/svg">
<path d="M1.58887 13.1446C6.3744 9.25062 6.60148 5.70983 11.9085 1.58871C14.953 2.52227 19.2255 10.9495 22.9934 15.5248M7.00484 7.71992L10.7138 6.22287L12.1352 9.14129L14.078 6.44154L17.5011 7.61059M5.02015 17.7283V30.386M8.44337 21.3953L5.12125 17.1985L1.58887 21.0757M8.44337 24.8604L5.12125 20.672L1.58887 24.5408M8.44337 28.3255L5.12125 24.1371L1.58887 28.0059M17.7031 29.0908H22.127M16.5342 23.0017H23.498M17.6947 30.386V23.0017M22.3374 23.0017V30.386M25.5921 25.7351H29.2674M24.6165 21.1177H30.4113M25.5837 26.7191V21.1177M29.4441 21.1177V26.7191M10.9244 24.3053H14.2633M10.0411 20.1253H15.2976M10.9244 25.1968V20.1253M14.4233 20.1253V25.1968M27.779 8.78804L27.7874 15.8192M30.4111 11.5803L27.8627 8.35911L25.1546 11.3364M30.4111 14.238L27.8627 11.0252L25.1546 13.9941M17.8797 20.3776C21.3112 16.7359 26.1556 16.5256 30.4028 16.0883M18.3424 17.3414C13.7503 13.6997 7.27432 13.4895 1.58887 13.0521" stroke="#8D889F" stroke-width="1.6" stroke-miterlimit="22.9256" stroke-linecap="round" stroke-linejoin="round"/>
</svg>
