<svg width="31" height="31" viewBox="0 0 31 31" fill="none" xmlns="http://www.w3.org/2000/svg">
<path d="M5.36564 6.32356H19.4799M5.36564 12.7746H12.427M30.0083 10.757V20.5649C30.0083 21.1244 29.5167 21.5822 28.9656 21.6076L27.6856 21.6585M14.7665 21.6924L2.63593 21.5991C2.07645 21.5991 1.59326 21.1329 1.59326 20.5565V2.63606C1.59326 2.05962 2.0595 1.59338 2.63593 1.59338H20.8446M5.25555 9.40071H19.5224M24.4054 23.4641V29.9066L21.0315 27.1177L17.6577 29.9066V23.4641M30.0083 8.40042H24.2439C23.6675 8.40042 23.2013 7.93419 23.2013 7.35775V1.59338L30.0083 8.40042ZM21.0314 14.7921C22.3793 14.7921 23.4813 15.8856 23.4813 17.2419C23.4813 18.5898 22.3878 19.6918 21.0314 19.6918C19.6836 19.6918 18.5816 18.5983 18.5816 17.2419C18.5816 15.8856 19.6836 14.7921 21.0314 14.7921ZM21.0313 11.5539C21.8366 11.5539 22.0739 13.156 22.8793 13.1052C23.6846 13.0628 24.4814 12.6474 25.0578 13.2154C25.6258 13.7833 24.6679 15.0888 25.2613 15.6228C25.8632 16.1654 26.7193 16.4366 26.7193 17.242C26.7193 18.0473 25.1172 18.2846 25.168 19.0899C25.2104 19.8953 25.6258 20.6921 25.0578 21.2685C24.4899 21.8365 23.1844 20.8786 22.6504 21.472C22.1078 22.0738 21.8366 22.93 21.0313 22.93C20.226 22.93 19.9886 21.3279 19.1833 21.3787C18.378 21.4211 17.5811 21.8365 17.0047 21.2685C16.4367 20.7006 17.3946 19.3951 16.8012 18.8611C16.1994 18.3185 15.3432 18.0473 15.3432 17.242C15.3432 16.4366 16.9453 16.1993 16.903 15.394C16.8606 14.5886 16.4452 13.7918 17.0132 13.2154C17.5811 12.6474 18.8866 13.6053 19.4206 13.0119C19.9547 12.4101 20.226 11.5539 21.0313 11.5539Z" stroke="#8D889F" stroke-width="1.71429" stroke-miterlimit="22.9256" stroke-linecap="round" stroke-linejoin="round"/>
</svg>
