<svg width="30" height="29" viewBox="0 0 30 29" fill="none" xmlns="http://www.w3.org/2000/svg">
<g clip-path="url(#clip0_35_103)">
<path d="M8.45215 14.434V15.405" stroke="#8D889F" stroke-width="1.6" stroke-miterlimit="22.9256" stroke-linecap="round" stroke-linejoin="round"/>
<path d="M16.2749 14.434V15.405" stroke="#8D889F" stroke-width="1.6" stroke-miterlimit="22.9256" stroke-linecap="round" stroke-linejoin="round"/>
<path d="M16.1662 21.0994C16.1662 22.6686 14.5892 23.9505 12.6471 23.9505C10.7049 23.9505 9.12793 22.6764 9.12793 21.0994" stroke="#8D889F" stroke-width="1.6" stroke-miterlimit="22.9256" stroke-linecap="round" stroke-linejoin="round"/>
<path d="M9.12793 21.0994H16.1662" stroke="#8D889F" stroke-width="1.6" stroke-miterlimit="22.9256" stroke-linecap="round" stroke-linejoin="round"/>
<path d="M22.6142 11.5829C22.8939 11.4198 23.6707 11.3033 24.2378 11.4042C24.9914 11.5363 25.3177 17.9842 22.7385 17.5414C22.2646 17.4559 22.4899 17.4793 22.3811 17.4171C22.2025 18.8931 21.915 22.6065 21.4567 23.5232C20.4701 25.4731 15.5448 28.4562 12.8336 28.4562C10.1224 28.4562 5.19711 25.4731 4.2105 23.5232C3.75216 22.6065 3.45695 18.8931 3.28604 17.4249C3.17728 17.487 3.40257 17.4637 2.92869 17.5492C0.349532 17.992 0.675811 11.5441 1.42936 11.412C1.99647 11.311 2.77332 11.4275 3.04522 11.5907" stroke="#8D889F" stroke-width="1.6" stroke-miterlimit="22.9256" stroke-linecap="round" stroke-linejoin="round"/>
<path d="M22.3653 13.2609C22.1322 13.2221 21.8759 7.34128 18.582 6.63434C13.043 13.1988 3.59648 4.05518 3.13037 12.5074" stroke="#8D889F" stroke-width="1.6" stroke-miterlimit="22.9256" stroke-linecap="round" stroke-linejoin="round"/>
<path d="M22.3654 13.2609C21.9692 12.8414 23.1267 9.85053 23.5618 9.16689C25.4962 6.13716 22.4742 2.36164 19.7241 4.76989C20.8972 1.779 15.1251 0.776857 11.7924 0.574875C8.06353 0.349587 4.29578 1.36727 2.26042 3.20841C-0.365351 5.58559 0.357124 7.41897 2.1905 9.83499C2.62554 10.4021 3.29364 13.1599 3.31694 13.1755" stroke="#8D889F" stroke-width="1.6" stroke-miterlimit="22.9256" stroke-linecap="round" stroke-linejoin="round"/>
</g>
<defs>
<clipPath id="clip0_35_103">
<rect width="30" height="29" fill="white"/>
</clipPath>
</defs>
</svg>
