<svg width="32" height="31" viewBox="0 0 32 31" fill="none" xmlns="http://www.w3.org/2000/svg">
<path d="M27.9317 13.1422C27.9317 15.5441 28.7468 18.1887 28.8161 22.3074C28.8855 26.426 26.8131 29.9378 23.2928 29.9378H8.47421C5.07522 29.9378 3.00288 26.8422 3.03756 23.1745C3.08091 19.5067 3.84395 17.1395 3.84395 14.8677M11.4053 6.45697L10.9718 9.28368M23.1889 9.65653L21.9316 6.12748M7.59863 8.67673L8.44838 6.43096M5.7866 5.94537H26.6314M14.622 6.54367L14.3965 10.2548M21.0734 20.5298L22.6689 17.7725L21.0734 15.0151H17.8912L16.2958 17.7725M16.1136 23.2785L16.9113 24.6572L17.7003 26.0358H20.8912L22.4867 23.2785L20.8912 20.5212H17.7003M5.27475 0.933609H26.4924C28.426 0.933609 28.9029 4.93956 26.5618 5.84133L26.6312 6.00608L30.507 10.2028C32.2846 12.1277 28.8596 9.26634 26.5098 10.7664C24.5588 12.0063 24.7322 12.9775 22.3651 11.989C16.1394 9.3964 16.8591 14.3822 13.2086 12.9515C11.8213 12.4052 9.27203 10.7057 7.82399 11.3734C2.23994 13.9486 1.72835 10.0727 1 9.6045L5.78633 5.95406C2.87291 5.94538 3.14171 0.933609 5.27475 0.933609ZM16.1826 17.8332H13.0004L11.4049 20.5905L13.0004 23.3479H16.1826L17.778 20.5905L16.1826 17.8332Z" stroke="#8D889F" stroke-width="1.6" stroke-miterlimit="22.9256" stroke-linecap="round" stroke-linejoin="round"/>
</svg>
