<svg width="378" height="130" viewBox="0 0 378 130" fill="none" xmlns="http://www.w3.org/2000/svg">
<rect width="378" height="130" fill="#333041"/>
<path d="M264.5 122.717C262.715 122.717 261.182 122.401 259.901 121.77C258.621 121.139 257.575 120.318 256.764 119.308C255.97 118.299 255.384 117.199 255.005 116.008C254.627 114.818 254.437 113.673 254.437 112.573V111.978C254.437 110.751 254.627 109.543 255.005 108.353C255.402 107.163 256.006 106.081 256.818 105.107C257.629 104.133 258.657 103.358 259.901 102.781C261.164 102.185 262.652 101.888 264.365 101.888C266.15 101.888 267.701 102.212 269.017 102.862C270.352 103.493 271.416 104.395 272.209 105.567C273.003 106.721 273.481 108.073 273.643 109.624H269.775C269.631 108.723 269.306 107.965 268.801 107.352C268.314 106.721 267.692 106.252 266.935 105.945C266.177 105.621 265.321 105.459 264.365 105.459C263.391 105.459 262.525 105.63 261.768 105.973C261.01 106.297 260.379 106.766 259.874 107.379C259.369 107.992 258.982 108.714 258.711 109.543C258.459 110.373 258.332 111.292 258.332 112.302C258.332 113.276 258.459 114.178 258.711 115.007C258.982 115.837 259.378 116.567 259.901 117.199C260.424 117.812 261.065 118.29 261.822 118.632C262.597 118.975 263.49 119.146 264.5 119.146C265.979 119.146 267.223 118.785 268.233 118.064C269.261 117.325 269.883 116.297 270.099 114.98H273.968C273.787 116.387 273.309 117.676 272.534 118.849C271.759 120.021 270.695 120.959 269.342 121.662C267.99 122.365 266.375 122.717 264.5 122.717ZM262.147 100.941L258.576 96.2344H262.038L264.148 99.1288H264.608L266.583 96.2344H269.937L266.556 100.941H262.147Z" fill="#FBC41E"/>
<path d="M282.078 122.203V102.456H285.838V122.203H282.078ZM285.297 122.203V118.957H294.251V122.203H285.297ZM285.297 113.79V110.544H293.548V113.79H285.297ZM285.297 105.702V102.456H294.035V105.702H285.297Z" fill="#FBC41E"/>
<path d="M309.638 122.717C307.889 122.717 306.41 122.437 305.202 121.878C304.012 121.319 303.101 120.553 302.47 119.579C301.839 118.587 301.523 117.469 301.523 116.225H305.283C305.283 116.748 305.428 117.262 305.716 117.767C306.005 118.253 306.465 118.65 307.096 118.957C307.745 119.263 308.592 119.417 309.638 119.417C310.576 119.417 311.361 119.281 311.992 119.011C312.623 118.74 313.092 118.389 313.398 117.956C313.705 117.505 313.858 117 313.858 116.441C313.858 115.738 313.561 115.179 312.966 114.764C312.371 114.331 311.451 114.061 310.206 113.952L308.475 113.817C306.582 113.655 305.067 113.069 303.931 112.059C302.813 111.031 302.254 109.678 302.254 108.001C302.254 106.739 302.551 105.657 303.146 104.755C303.741 103.835 304.571 103.132 305.635 102.645C306.717 102.14 307.979 101.888 309.422 101.888C310.919 101.888 312.208 102.149 313.29 102.672C314.372 103.195 315.211 103.935 315.806 104.89C316.401 105.828 316.699 106.937 316.699 108.218H312.939C312.939 107.676 312.803 107.181 312.533 106.73C312.28 106.261 311.893 105.891 311.37 105.621C310.865 105.332 310.216 105.188 309.422 105.188C308.665 105.188 308.033 105.314 307.528 105.567C307.024 105.819 306.645 106.162 306.392 106.594C306.14 107.027 306.014 107.496 306.014 108.001C306.014 108.614 306.239 109.155 306.69 109.624C307.141 110.075 307.853 110.337 308.827 110.409L310.558 110.571C311.965 110.679 313.2 110.977 314.264 111.464C315.328 111.951 316.149 112.609 316.726 113.439C317.321 114.268 317.618 115.269 317.618 116.441C317.618 117.685 317.294 118.785 316.645 119.741C315.995 120.679 315.067 121.409 313.858 121.932C312.668 122.455 311.261 122.717 309.638 122.717Z" fill="#FBC41E"/>
<path d="M338.794 122.203L331.572 112.979H328.786L337.361 102.456H341.77L334.033 111.924L333.925 110.03L343.474 122.203H338.794ZM325.999 122.203V102.456H329.841V122.203H325.999Z" fill="#FBC41E"/>
<path d="M358.586 122.717C356.8 122.717 355.249 122.401 353.933 121.77C352.634 121.139 351.552 120.318 350.687 119.308C349.839 118.281 349.199 117.18 348.766 116.008C348.351 114.818 348.144 113.673 348.144 112.573V111.978C348.144 110.77 348.36 109.57 348.793 108.38C349.226 107.172 349.875 106.081 350.741 105.107C351.625 104.133 352.716 103.357 354.014 102.78C355.312 102.185 356.836 101.888 358.586 101.888C360.317 101.888 361.832 102.185 363.13 102.78C364.428 103.357 365.51 104.133 366.376 105.107C367.26 106.081 367.918 107.172 368.351 108.38C368.784 109.57 369 110.77 369 111.978V112.573C369 113.673 368.784 114.818 368.351 116.008C367.936 117.18 367.296 118.281 366.43 119.308C365.583 120.318 364.501 121.139 363.184 121.77C361.886 122.401 360.353 122.717 358.586 122.717ZM358.586 119.146C359.595 119.146 360.497 118.966 361.291 118.605C362.102 118.244 362.787 117.749 363.346 117.117C363.923 116.468 364.356 115.738 364.645 114.926C364.951 114.097 365.105 113.222 365.105 112.302C365.105 111.311 364.951 110.4 364.645 109.57C364.356 108.74 363.923 108.019 363.346 107.406C362.787 106.793 362.102 106.315 361.291 105.972C360.479 105.63 359.577 105.458 358.586 105.458C357.576 105.458 356.665 105.63 355.853 105.972C355.042 106.315 354.348 106.793 353.771 107.406C353.211 108.019 352.779 108.74 352.472 109.57C352.184 110.4 352.039 111.311 352.039 112.302C352.039 113.222 352.184 114.097 352.472 114.926C352.779 115.738 353.211 116.468 353.771 117.117C354.348 117.749 355.042 118.244 355.853 118.605C356.665 118.966 357.576 119.146 358.586 119.146Z" fill="#FBC41E"/>
<path d="M320.813 84.1042V68.2028M364.542 84.1042V68.2028M364.542 68.2028V52.3014L342.677 30.437L320.813 52.3014V68.2028M364.542 68.2028H320.813" stroke="white" stroke-width="7.42207"/>
<path d="M11 84.0695V25.1133H21.499L38.9436 64.4443H40.2358L57.5996 25.1133H68.1794V84.0695H60.2647V33.7548L60.83 33.9164L44.1123 71.8744H34.4209L17.6225 33.9164L18.2686 33.7548V84.0695H11Z" fill="white"/>
<path d="M140.848 84.0695V25.1133H153.77L183.733 76.9624H186.317L184.702 78.4161V25.1133H192.294V84.0695H179.21L149.248 32.2204H146.663L148.279 30.7667V84.0695H140.848Z" fill="white"/>
<path d="M228.056 85.5232C222.726 85.5232 218.23 84.5002 214.569 82.4542C210.961 80.3544 208.215 77.447 206.331 73.7319C204.5 69.963 203.585 65.6019 203.585 60.6485V25.1133H211.5V61.6177C211.5 64.902 212.119 67.8094 213.357 70.3399C214.65 72.8166 216.534 74.7549 219.011 76.1548C221.487 77.5547 224.502 78.2546 228.056 78.2546C231.61 78.2546 234.598 77.5816 237.021 76.2356C239.497 74.8357 241.355 72.8974 242.593 70.4207C243.885 67.8902 244.531 64.9558 244.531 61.6177V25.1133H252.446V60.6485C252.446 65.6019 251.531 69.963 249.7 73.7319C247.87 77.447 245.151 80.3544 241.543 82.4542C237.936 84.5002 233.44 85.5232 228.056 85.5232Z" fill="white"/>
<path d="M300.498 84.0695L276.512 56.5297H267.87L295.249 25.1133H304.294L279.419 53.5415L278.692 47.9689L310.351 84.0695H300.498ZM263.348 84.0695V25.1133H271.262V84.0695H263.348Z" fill="white"/>
<path d="M87.6957 63.1528V54.3619L104.458 37.4722L121.377 54.3726V63.1528H87.6957Z" fill="#FBC41E" stroke="#333040" stroke-width="8.4204"/>
<path d="M82.7496 84.034V68.1326M126.479 84.034V68.1326M126.479 68.1326V52.2312L104.614 30.3667L82.7496 52.2312V68.1326M126.479 68.1326H104.614H82.7496" stroke="white" stroke-width="7.42207"/>
<path d="M78.9434 14H130.327" stroke="white" stroke-width="7.21692"/>
</svg>
