<?xml version="1.0" standalone="no"?>
<!DOCTYPE svg PUBLIC "-//W3C//DTD SVG 20010904//EN"
 "http://www.w3.org/TR/2001/REC-SVG-20010904/DTD/svg10.dtd">
<svg version="1.0" xmlns="http://www.w3.org/2000/svg"
 width="260.000000pt" height="260.000000pt" viewBox="0 0 260.000000 260.000000"
 preserveAspectRatio="xMidYMid meet">
<metadata>
Created by potrace 1.14, written by Peter Selinger 2001-2017
</metadata>
<g transform="translate(0.000000,260.000000) scale(0.100000,-0.100000)"
fill="#000000" stroke="none">
<path d="M390 2475 l0 -125 910 0 910 0 0 125 0 125 -910 0 -910 0 0 -125z"/>
<path d="M842 1627 l-452 -452 0 -588 0 -587 135 0 135 0 0 215 0 215 640 0
640 0 0 -215 0 -215 130 0 130 0 0 593 0 592 -448 448 c-246 246 -449 447
-452 447 -3 0 -209 -204 -458 -453z m780 -234 l318 -318 0 -187 0 -188 -640 0
-640 0 0 187 0 188 317 317 c175 175 320 318 323 318 3 0 148 -143 322 -317z"/>
</g>
</svg>
